<svg width="452" height="354" viewBox="0 0 452 354" fill="none" xmlns="http://www.w3.org/2000/svg">
<path d="M2.89689 237.298H7.65843L13.0693 254.164L18.4801 237.298H23.2417L15.0005 261.539H11.138L2.89689 237.298ZM0 237.298H4.92804L5.84372 255.878V261.539H0V237.298ZM21.2105 237.298H26.1552V261.539H20.2948V255.878L21.2105 237.298Z" fill="white"/>
<path d="M39.5741 253.314H33.5473V248.803H39.5741C40.3955 248.803 41.0614 248.664 41.572 248.386C42.0825 248.109 42.4544 247.726 42.6874 247.238C42.9316 246.738 43.0537 246.178 43.0537 245.556C43.0537 244.89 42.9316 244.274 42.6874 243.708C42.4544 243.142 42.0825 242.687 41.572 242.343C41.0614 241.988 40.3955 241.81 39.5741 241.81H35.7449V261.539H29.9012V237.298H39.5741C41.5165 237.298 43.1869 237.653 44.5854 238.364C45.995 239.074 47.0772 240.051 47.8319 241.294C48.5867 242.526 48.964 243.936 48.964 245.523C48.964 247.088 48.5867 248.453 47.8319 249.618C47.0772 250.784 45.995 251.694 44.5854 252.349C43.1869 252.993 41.5165 253.314 39.5741 253.314Z" fill="white"/>
<path d="M64.5972 255.096C64.5972 254.718 64.5417 254.38 64.4307 254.08C64.3197 253.769 64.1144 253.481 63.8147 253.215C63.515 252.948 63.0822 252.682 62.5161 252.415C61.9612 252.138 61.2286 251.849 60.3185 251.55C59.253 251.194 58.2263 250.795 57.2385 250.351C56.2506 249.896 55.3682 249.369 54.5913 248.769C53.8144 248.159 53.1984 247.449 52.7433 246.638C52.2882 245.817 52.0607 244.862 52.0607 243.775C52.0607 242.731 52.2938 241.793 52.7599 240.961C53.2261 240.117 53.8754 239.402 54.7078 238.813C55.5514 238.214 56.5392 237.759 57.6713 237.448C58.8034 237.126 60.041 236.965 61.384 236.965C63.1599 236.965 64.7249 237.276 66.079 237.898C67.4442 238.508 68.5097 239.379 69.2755 240.512C70.0525 241.633 70.4409 242.959 70.4409 244.491H64.6305C64.6305 243.88 64.5029 243.342 64.2476 242.876C64.0034 242.409 63.6316 242.043 63.1321 241.777C62.6327 241.51 62.0056 241.377 61.2508 241.377C60.5183 241.377 59.9023 241.488 59.4028 241.71C58.9033 241.932 58.526 242.232 58.2707 242.609C58.0154 242.976 57.8878 243.381 57.8878 243.825C57.8878 244.191 57.9877 244.524 58.1874 244.824C58.3983 245.112 58.6925 245.384 59.0698 245.639C59.4583 245.895 59.9245 246.139 60.4683 246.372C61.0233 246.605 61.6448 246.833 62.333 247.054C63.6205 247.465 64.7637 247.926 65.7626 248.436C66.7727 248.936 67.6217 249.507 68.3099 250.151C69.0091 250.784 69.5364 251.505 69.8915 252.315C70.2578 253.126 70.4409 254.041 70.4409 255.063C70.4409 256.15 70.23 257.116 69.8083 257.959C69.3865 258.803 68.7816 259.519 67.9936 260.107C67.2055 260.684 66.2621 261.123 65.1633 261.422C64.0645 261.722 62.838 261.872 61.4839 261.872C60.2408 261.872 59.0143 261.716 57.8045 261.406C56.6058 261.084 55.5181 260.595 54.5414 259.941C53.5646 259.275 52.7821 258.426 52.1939 257.393C51.6167 256.35 51.3281 255.112 51.3281 253.681H57.1885C57.1885 254.391 57.2829 254.99 57.4715 255.479C57.6602 255.967 57.9377 256.361 58.304 256.661C58.6703 256.949 59.1198 257.16 59.6525 257.293C60.1853 257.416 60.7957 257.477 61.4839 257.477C62.2275 257.477 62.8269 257.371 63.282 257.16C63.737 256.938 64.07 256.65 64.2809 256.295C64.4918 255.928 64.5972 255.529 64.5972 255.096Z" fill="white"/>
<path d="M85.1917 237.298V261.539H79.348V237.298H85.1917ZM92.4839 237.298V241.81H72.2224V237.298H92.4839Z" fill="white"/>
<path d="M97.8615 237.298H102.623L108.034 254.164L113.445 237.298H118.206L109.965 261.539H106.103L97.8615 237.298ZM94.9646 237.298H99.8926L100.808 255.878V261.539H94.9646V237.298ZM116.175 237.298H121.12V261.539H115.259V255.878L116.175 237.298Z" fill="white"/>
<path d="M141.548 257.044V261.539H128.628V257.044H141.548ZM130.709 237.298V261.539H124.866V237.298H130.709ZM139.883 246.921V251.267H128.628V246.921H139.883ZM141.598 237.298V241.81H128.628V237.298H141.598Z" fill="white"/>
<path d="M275.768 0L180.508 93.8996H232.221L275.768 51.7128L318.635 93.8996H370.348L275.768 0Z" fill="#9046D4"/>
<path d="M275.768 353.144L180.508 259.244H232.221L275.768 301.431L318.635 259.244H370.348L275.768 353.144Z" fill="#FFA7FB"/>
<path d="M390.761 114.312H339.729L400.287 176.232L339.729 232.708H390.761L452 176.232L390.761 114.312Z" fill="#E56DFC"/>
<path fill-rule="evenodd" clip-rule="evenodd" d="M51.6134 204.352C49.9536 205.736 48.5705 207.119 47.464 208.502C46.0809 209.608 44.2829 210.715 42.0699 211.821C39.8569 212.928 37.6437 213.758 35.4307 214.311C33.2178 214.864 30.3133 215.141 26.7172 215.141C19.8016 215.141 13.9924 212.79 9.28981 208.087C4.5872 203.384 2.23584 197.437 2.23584 190.245C2.23584 184.159 3.48075 179.318 5.97037 175.722C8.18336 172.126 11.5027 169.221 15.9287 167.008C20.3547 165.072 25.749 163.689 32.1113 162.859C38.197 161.752 44.836 161.061 52.0282 160.784V160.369C52.0282 155.943 50.3684 152.9 47.0489 151.241C44.006 149.581 39.1651 148.751 32.5261 148.751C29.7599 148.751 26.4406 149.304 22.5678 150.411C18.6951 151.517 14.8224 152.9 10.9497 154.56H8.87497V135.058C11.3646 134.505 15.3755 133.675 20.908 132.568C26.1638 131.739 31.6963 131.324 37.5054 131.324C51.06 131.324 61.0185 133.537 67.3809 137.963C73.4666 142.665 76.5095 149.581 76.5095 158.709V213.066H51.6134V204.352ZM51.6134 191.904V175.307C47.464 175.86 44.1444 176.275 41.6548 176.552C39.1652 176.829 36.6756 177.382 34.186 178.211C31.973 179.041 30.3132 180.148 29.2067 181.531C28.1002 183.191 27.5471 185.265 27.5471 187.755C27.5471 191.351 28.5151 193.841 30.4515 195.224C32.3878 196.607 35.2925 197.299 39.1653 197.299C41.3783 197.299 43.5912 196.884 45.8042 196.054C48.0172 194.947 49.9536 193.564 51.6134 191.904Z" fill="white"/>
<path d="M130.875 215.141C124.236 215.141 118.289 214.311 113.033 212.651C107.5 210.991 102.659 208.364 98.51 204.768C94.6372 201.448 91.5943 197.16 89.3813 191.904C87.1683 186.648 86.0619 180.563 86.0619 173.647C86.0619 165.902 87.3068 159.401 89.7964 154.145C92.0094 148.889 95.1905 144.463 99.3399 140.867C103.489 137.548 108.192 135.196 113.448 133.813C118.703 132.154 124.236 131.324 130.045 131.324C134.471 131.324 138.897 131.877 143.323 132.984C147.749 133.813 152.175 135.335 156.601 137.548V159.125H153.282C152.452 158.018 151.345 156.912 149.962 155.805C148.302 154.699 146.643 153.73 144.983 152.9C143.323 151.794 141.387 150.826 139.174 149.996C136.684 149.443 134.056 149.166 131.29 149.166C124.928 149.166 120.087 151.379 116.767 155.805C113.171 160.231 111.373 166.178 111.373 173.647C111.373 181.393 113.309 187.202 117.182 191.075C120.778 195.224 125.619 197.299 131.705 197.299C135.024 197.299 137.791 196.884 140.004 196.054C142.493 195.5 144.568 194.671 146.228 193.564C147.887 192.458 149.271 191.489 150.377 190.66C151.484 189.553 152.452 188.585 153.282 187.755H156.601V208.917C155.218 209.47 153.558 210.162 151.622 210.992C149.685 211.821 147.749 212.513 145.813 213.066C143.6 213.62 141.387 214.034 139.174 214.311C137.237 214.864 134.471 215.141 130.875 215.141Z" fill="white"/>
<path d="M264.483 213.066V173.232C264.483 169.359 264.483 166.04 264.483 163.274C264.207 160.508 263.792 158.294 263.238 156.635C262.409 154.975 261.302 153.73 259.919 152.9C258.259 152.071 256.185 151.656 253.695 151.656C251.759 151.932 249.822 152.347 247.886 152.9C245.949 153.73 244.013 154.975 242.077 156.635V213.066H217.18V173.232C217.18 169.359 217.042 166.04 216.765 163.274C216.765 160.508 216.351 158.294 215.521 156.635C214.967 154.975 213.861 153.73 212.201 152.9C210.818 152.071 208.743 151.656 205.977 151.656C204.041 151.656 202.104 152.209 200.168 153.315C198.232 154.145 196.295 155.252 194.359 156.635V213.066H169.463V133.398H194.359V142.112C198.508 138.792 202.381 136.165 205.977 134.228C209.573 132.292 213.584 131.324 218.01 131.324C222.713 131.324 227.001 132.43 230.873 134.643C234.47 137.133 237.236 140.591 239.172 145.017C243.875 140.591 248.301 137.271 252.45 135.058C256.876 132.569 261.164 131.324 265.313 131.324C269.186 131.324 272.505 131.877 275.271 132.984C278.314 134.367 280.804 136.165 282.74 138.378C284.953 140.867 286.613 143.91 287.72 147.506C288.826 151.102 289.379 155.667 289.379 161.199V213.066H264.483Z" fill="white"/>
</svg>
