<svg xmlns="http://www.w3.org/2000/svg" xmlns:xlink="http://www.w3.org/1999/xlink" width="572" zoomAndPan="magnify" viewBox="0 0 428.88 217.499994" height="290" preserveAspectRatio="xMidYMid meet" version="1.0"><defs><clipPath id="d1db9c1f0e"><path d="M 0.433594 0 L 428.328125 0 L 428.328125 217 L 0.433594 217 Z M 0.433594 0 " clip-rule="nonzero"/></clipPath><clipPath id="91f70fbe00"><path d="M 182.519531 93.796875 L 212.097656 93.796875 L 212.097656 123.375 L 182.519531 123.375 Z M 182.519531 93.796875 " clip-rule="nonzero"/></clipPath><clipPath id="9d524f61ba"><path d="M 197.308594 93.796875 C 189.140625 93.796875 182.519531 100.417969 182.519531 108.585938 C 182.519531 116.753906 189.140625 123.375 197.308594 123.375 C 205.476562 123.375 212.097656 116.753906 212.097656 108.585938 C 212.097656 100.417969 205.476562 93.796875 197.308594 93.796875 Z M 197.308594 93.796875 " clip-rule="nonzero"/></clipPath><clipPath id="77ab2d61fc"><path d="M 213.414062 93.738281 L 242.992188 93.738281 L 242.992188 123.316406 L 213.414062 123.316406 Z M 213.414062 93.738281 " clip-rule="nonzero"/></clipPath><clipPath id="df0d0c294c"><path d="M 228.203125 93.738281 C 220.035156 93.738281 213.414062 100.359375 213.414062 108.527344 C 213.414062 116.691406 220.035156 123.316406 228.203125 123.316406 C 236.371094 123.316406 242.992188 116.691406 242.992188 108.527344 C 242.992188 100.359375 236.371094 93.738281 228.203125 93.738281 Z M 228.203125 93.738281 " clip-rule="nonzero"/></clipPath><clipPath id="4062f2bb11"><path d="M 213.085938 0.984375 L 242.664062 0.984375 L 242.664062 30.558594 L 213.085938 30.558594 Z M 213.085938 0.984375 " clip-rule="nonzero"/></clipPath><clipPath id="21cd4c667c"><path d="M 227.875 0.984375 C 219.707031 0.984375 213.085938 7.605469 213.085938 15.773438 C 213.085938 23.9375 219.707031 30.558594 227.875 30.558594 C 236.042969 30.558594 242.664062 23.9375 242.664062 15.773438 C 242.664062 7.605469 236.042969 0.984375 227.875 0.984375 Z M 227.875 0.984375 " clip-rule="nonzero"/></clipPath><clipPath id="653d3148a4"><path d="M 182.191406 0.984375 L 211.769531 0.984375 L 211.769531 30.558594 L 182.191406 30.558594 Z M 182.191406 0.984375 " clip-rule="nonzero"/></clipPath><clipPath id="d4280dc013"><path d="M 196.980469 0.984375 C 188.8125 0.984375 182.191406 7.605469 182.191406 15.773438 C 182.191406 23.9375 188.8125 30.558594 196.980469 30.558594 C 205.148438 30.558594 211.769531 23.9375 211.769531 15.773438 C 211.769531 7.605469 205.148438 0.984375 196.980469 0.984375 Z M 196.980469 0.984375 " clip-rule="nonzero"/></clipPath><clipPath id="5fea7b029f"><path d="M 243.980469 1.042969 L 273.558594 1.042969 L 273.558594 30.621094 L 243.980469 30.621094 Z M 243.980469 1.042969 " clip-rule="nonzero"/></clipPath><clipPath id="0c7ecf48c4"><path d="M 258.769531 1.042969 C 250.601562 1.042969 243.980469 7.664062 243.980469 15.832031 C 243.980469 24 250.601562 30.621094 258.769531 30.621094 C 266.9375 30.621094 273.558594 24 273.558594 15.832031 C 273.558594 7.664062 266.9375 1.042969 258.769531 1.042969 Z M 258.769531 1.042969 " clip-rule="nonzero"/></clipPath><clipPath id="0c989feaad"><path d="M 151.296875 187.078125 L 180.875 187.078125 L 180.875 216.65625 L 151.296875 216.65625 Z M 151.296875 187.078125 " clip-rule="nonzero"/></clipPath><clipPath id="123e4d9b48"><path d="M 166.085938 187.078125 C 157.917969 187.078125 151.296875 193.699219 151.296875 201.867188 C 151.296875 210.035156 157.917969 216.65625 166.085938 216.65625 C 174.253906 216.65625 180.875 210.035156 180.875 201.867188 C 180.875 193.699219 174.253906 187.078125 166.085938 187.078125 Z M 166.085938 187.078125 " clip-rule="nonzero"/></clipPath><clipPath id="eb56dee1e2"><path d="M 151.296875 125.289062 L 180.875 125.289062 L 180.875 154.867188 L 151.296875 154.867188 Z M 151.296875 125.289062 " clip-rule="nonzero"/></clipPath><clipPath id="5e240f39f4"><path d="M 166.085938 125.289062 C 157.917969 125.289062 151.296875 131.910156 151.296875 140.078125 C 151.296875 148.246094 157.917969 154.867188 166.085938 154.867188 C 174.253906 154.867188 180.875 148.246094 180.875 140.078125 C 180.875 131.910156 174.253906 125.289062 166.085938 125.289062 Z M 166.085938 125.289062 " clip-rule="nonzero"/></clipPath><clipPath id="716ab3fac7"><path d="M 151.296875 63.5 L 180.875 63.5 L 180.875 93.078125 L 151.296875 93.078125 Z M 151.296875 63.5 " clip-rule="nonzero"/></clipPath><clipPath id="39b59f1b54"><path d="M 166.085938 63.5 C 157.917969 63.5 151.296875 70.121094 151.296875 78.289062 C 151.296875 86.457031 157.917969 93.078125 166.085938 93.078125 C 174.253906 93.078125 180.875 86.457031 180.875 78.289062 C 180.875 70.121094 174.253906 63.5 166.085938 63.5 Z M 166.085938 63.5 " clip-rule="nonzero"/></clipPath><clipPath id="0fe8917966"><path d="M 151.296875 32.605469 L 180.875 32.605469 L 180.875 62.183594 L 151.296875 62.183594 Z M 151.296875 32.605469 " clip-rule="nonzero"/></clipPath><clipPath id="592620eb67"><path d="M 166.085938 32.605469 C 157.917969 32.605469 151.296875 39.226562 151.296875 47.394531 C 151.296875 55.5625 157.917969 62.183594 166.085938 62.183594 C 174.253906 62.183594 180.875 55.5625 180.875 47.394531 C 180.875 39.226562 174.253906 32.605469 166.085938 32.605469 Z M 166.085938 32.605469 " clip-rule="nonzero"/></clipPath><clipPath id="01c469fafd"><path d="M 151.296875 1.332031 L 180.875 1.332031 L 180.875 30.910156 L 151.296875 30.910156 Z M 151.296875 1.332031 " clip-rule="nonzero"/></clipPath><clipPath id="fdec885c53"><path d="M 166.085938 1.332031 C 157.917969 1.332031 151.296875 7.953125 151.296875 16.121094 C 151.296875 24.289062 157.917969 30.910156 166.085938 30.910156 C 174.253906 30.910156 180.875 24.289062 180.875 16.121094 C 180.875 7.953125 174.253906 1.332031 166.085938 1.332031 Z M 166.085938 1.332031 " clip-rule="nonzero"/></clipPath><clipPath id="0273246ade"><path d="M 151.296875 156.183594 L 180.875 156.183594 L 180.875 185.761719 L 151.296875 185.761719 Z M 151.296875 156.183594 " clip-rule="nonzero"/></clipPath><clipPath id="bdb6b12de3"><path d="M 166.085938 156.183594 C 157.917969 156.183594 151.296875 162.804688 151.296875 170.972656 C 151.296875 179.140625 157.917969 185.761719 166.085938 185.761719 C 174.253906 185.761719 180.875 179.140625 180.875 170.972656 C 180.875 162.804688 174.253906 156.183594 166.085938 156.183594 Z M 166.085938 156.183594 " clip-rule="nonzero"/></clipPath><clipPath id="709e87eb73"><path d="M 151.296875 94.394531 L 180.875 94.394531 L 180.875 123.972656 L 151.296875 123.972656 Z M 151.296875 94.394531 " clip-rule="nonzero"/></clipPath><clipPath id="786ec7197a"><path d="M 166.085938 94.394531 C 157.917969 94.394531 151.296875 101.015625 151.296875 109.183594 C 151.296875 117.351562 157.917969 123.972656 166.085938 123.972656 C 174.253906 123.972656 180.875 117.351562 180.875 109.183594 C 180.875 101.015625 174.253906 94.394531 166.085938 94.394531 Z M 166.085938 94.394531 " clip-rule="nonzero"/></clipPath><clipPath id="c5b88e3fbd"><path d="M 92.707031 47.394531 L 122.285156 47.394531 L 122.285156 76.972656 L 92.707031 76.972656 Z M 92.707031 47.394531 " clip-rule="nonzero"/></clipPath><clipPath id="8a59c2108a"><path d="M 107.496094 47.394531 C 99.328125 47.394531 92.707031 54.015625 92.707031 62.183594 C 92.707031 70.351562 99.328125 76.972656 107.496094 76.972656 C 115.664062 76.972656 122.285156 70.351562 122.285156 62.183594 C 122.285156 54.015625 115.664062 47.394531 107.496094 47.394531 Z M 107.496094 47.394531 " clip-rule="nonzero"/></clipPath><clipPath id="07447bee36"><path d="M 91.0625 16.5 L 120.640625 16.5 L 120.640625 46.078125 L 91.0625 46.078125 Z M 91.0625 16.5 " clip-rule="nonzero"/></clipPath><clipPath id="2ec5ee62fd"><path d="M 105.851562 16.5 C 97.683594 16.5 91.0625 23.121094 91.0625 31.289062 C 91.0625 39.457031 97.683594 46.078125 105.851562 46.078125 C 114.019531 46.078125 120.640625 39.457031 120.640625 31.289062 C 120.640625 23.121094 114.019531 16.5 105.851562 16.5 Z M 105.851562 16.5 " clip-rule="nonzero"/></clipPath><clipPath id="5cbab9d57c"><path d="M 63.128906 0.492188 L 92.707031 0.492188 L 92.707031 30.070312 L 63.128906 30.070312 Z M 63.128906 0.492188 " clip-rule="nonzero"/></clipPath><clipPath id="009a414fe4"><path d="M 77.917969 0.492188 C 69.75 0.492188 63.128906 7.113281 63.128906 15.28125 C 63.128906 23.449219 69.75 30.070312 77.917969 30.070312 C 86.085938 30.070312 92.707031 23.449219 92.707031 15.28125 C 92.707031 7.113281 86.085938 0.492188 77.917969 0.492188 Z M 77.917969 0.492188 " clip-rule="nonzero"/></clipPath><clipPath id="e83d9f87c6"><path d="M 31.375 0.492188 L 60.953125 0.492188 L 60.953125 30.070312 L 31.375 30.070312 Z M 31.375 0.492188 " clip-rule="nonzero"/></clipPath><clipPath id="1906a14470"><path d="M 46.164062 0.492188 C 37.996094 0.492188 31.375 7.113281 31.375 15.28125 C 31.375 23.449219 37.996094 30.070312 46.164062 30.070312 C 54.332031 30.070312 60.953125 23.449219 60.953125 15.28125 C 60.953125 7.113281 54.332031 0.492188 46.164062 0.492188 Z M 46.164062 0.492188 " clip-rule="nonzero"/></clipPath><clipPath id="ef080518f6"><path d="M 62.269531 91.753906 L 91.847656 91.753906 L 91.847656 121.328125 L 62.269531 121.328125 Z M 62.269531 91.753906 " clip-rule="nonzero"/></clipPath><clipPath id="d5cba59f85"><path d="M 77.058594 91.753906 C 68.890625 91.753906 62.269531 98.375 62.269531 106.542969 C 62.269531 114.707031 68.890625 121.328125 77.058594 121.328125 C 85.226562 121.328125 91.847656 114.707031 91.847656 106.542969 C 91.847656 98.375 85.226562 91.753906 77.058594 91.753906 Z M 77.058594 91.753906 " clip-rule="nonzero"/></clipPath><clipPath id="e94e75997f"><path d="M 31.375 91.753906 L 60.953125 91.753906 L 60.953125 121.328125 L 31.375 121.328125 Z M 31.375 91.753906 " clip-rule="nonzero"/></clipPath><clipPath id="0394127861"><path d="M 46.164062 91.753906 C 37.996094 91.753906 31.375 98.375 31.375 106.542969 C 31.375 114.707031 37.996094 121.328125 46.164062 121.328125 C 54.332031 121.328125 60.953125 114.707031 60.953125 106.542969 C 60.953125 98.375 54.332031 91.753906 46.164062 91.753906 Z M 46.164062 91.753906 " clip-rule="nonzero"/></clipPath><clipPath id="a77a5c9a16"><path d="M 0.433594 187.078125 L 30.007812 187.078125 L 30.007812 216.65625 L 0.433594 216.65625 Z M 0.433594 187.078125 " clip-rule="nonzero"/></clipPath><clipPath id="d8e6b96220"><path d="M 15.222656 187.078125 C 7.054688 187.078125 0.433594 193.699219 0.433594 201.867188 C 0.433594 210.035156 7.054688 216.65625 15.222656 216.65625 C 23.386719 216.65625 30.007812 210.035156 30.007812 201.867188 C 30.007812 193.699219 23.386719 187.078125 15.222656 187.078125 Z M 15.222656 187.078125 " clip-rule="nonzero"/></clipPath><clipPath id="e41136dcd1"><path d="M 0.433594 125.289062 L 30.007812 125.289062 L 30.007812 154.867188 L 0.433594 154.867188 Z M 0.433594 125.289062 " clip-rule="nonzero"/></clipPath><clipPath id="52081fc58c"><path d="M 15.222656 125.289062 C 7.054688 125.289062 0.433594 131.910156 0.433594 140.078125 C 0.433594 148.246094 7.054688 154.867188 15.222656 154.867188 C 23.386719 154.867188 30.007812 148.246094 30.007812 140.078125 C 30.007812 131.910156 23.386719 125.289062 15.222656 125.289062 Z M 15.222656 125.289062 " clip-rule="nonzero"/></clipPath><clipPath id="fbdd39bf0b"><path d="M 0.433594 63.5 L 30.007812 63.5 L 30.007812 93.078125 L 0.433594 93.078125 Z M 0.433594 63.5 " clip-rule="nonzero"/></clipPath><clipPath id="0e0899533e"><path d="M 15.222656 63.5 C 7.054688 63.5 0.433594 70.121094 0.433594 78.289062 C 0.433594 86.457031 7.054688 93.078125 15.222656 93.078125 C 23.386719 93.078125 30.007812 86.457031 30.007812 78.289062 C 30.007812 70.121094 23.386719 63.5 15.222656 63.5 Z M 15.222656 63.5 " clip-rule="nonzero"/></clipPath><clipPath id="53014725cf"><path d="M 0.433594 32.605469 L 30.007812 32.605469 L 30.007812 62.183594 L 0.433594 62.183594 Z M 0.433594 32.605469 " clip-rule="nonzero"/></clipPath><clipPath id="c087d6b44d"><path d="M 15.222656 32.605469 C 7.054688 32.605469 0.433594 39.226562 0.433594 47.394531 C 0.433594 55.5625 7.054688 62.183594 15.222656 62.183594 C 23.386719 62.183594 30.007812 55.5625 30.007812 47.394531 C 30.007812 39.226562 23.386719 32.605469 15.222656 32.605469 Z M 15.222656 32.605469 " clip-rule="nonzero"/></clipPath><clipPath id="630acd47a2"><path d="M 0.433594 1.042969 L 30.007812 1.042969 L 30.007812 30.621094 L 0.433594 30.621094 Z M 0.433594 1.042969 " clip-rule="nonzero"/></clipPath><clipPath id="d7db24c736"><path d="M 15.222656 1.042969 C 7.054688 1.042969 0.433594 7.664062 0.433594 15.832031 C 0.433594 24 7.054688 30.621094 15.222656 30.621094 C 23.386719 30.621094 30.007812 24 30.007812 15.832031 C 30.007812 7.664062 23.386719 1.042969 15.222656 1.042969 Z M 15.222656 1.042969 " clip-rule="nonzero"/></clipPath><clipPath id="76c88048b2"><path d="M 0.433594 156.183594 L 30.007812 156.183594 L 30.007812 185.761719 L 0.433594 185.761719 Z M 0.433594 156.183594 " clip-rule="nonzero"/></clipPath><clipPath id="0748501491"><path d="M 15.222656 156.183594 C 7.054688 156.183594 0.433594 162.804688 0.433594 170.972656 C 0.433594 179.140625 7.054688 185.761719 15.222656 185.761719 C 23.386719 185.761719 30.007812 179.140625 30.007812 170.972656 C 30.007812 162.804688 23.386719 156.183594 15.222656 156.183594 Z M 15.222656 156.183594 " clip-rule="nonzero"/></clipPath><clipPath id="345d2cf4ba"><path d="M 0.433594 94.394531 L 30.007812 94.394531 L 30.007812 123.972656 L 0.433594 123.972656 Z M 0.433594 94.394531 " clip-rule="nonzero"/></clipPath><clipPath id="feb3e09e39"><path d="M 15.222656 94.394531 C 7.054688 94.394531 0.433594 101.015625 0.433594 109.183594 C 0.433594 117.351562 7.054688 123.972656 15.222656 123.972656 C 23.386719 123.972656 30.007812 117.351562 30.007812 109.183594 C 30.007812 101.015625 23.386719 94.394531 15.222656 94.394531 Z M 15.222656 94.394531 " clip-rule="nonzero"/></clipPath><clipPath id="cd45a8d0ab"><path d="M 91.0625 78.289062 L 120.640625 78.289062 L 120.640625 107.867188 L 91.0625 107.867188 Z M 91.0625 78.289062 " clip-rule="nonzero"/></clipPath><clipPath id="1075838472"><path d="M 105.851562 78.289062 C 97.683594 78.289062 91.0625 84.910156 91.0625 93.078125 C 91.0625 101.246094 97.683594 107.867188 105.851562 107.867188 C 114.019531 107.867188 120.640625 101.246094 120.640625 93.078125 C 120.640625 84.910156 114.019531 78.289062 105.851562 78.289062 Z M 105.851562 78.289062 " clip-rule="nonzero"/></clipPath><clipPath id="6c82d3ff06"><path d="M 151.296875 187.078125 L 180.875 187.078125 L 180.875 216.65625 L 151.296875 216.65625 Z M 151.296875 187.078125 " clip-rule="nonzero"/></clipPath><clipPath id="871e9b5d33"><path d="M 166.085938 187.078125 C 157.917969 187.078125 151.296875 193.699219 151.296875 201.867188 C 151.296875 210.035156 157.917969 216.65625 166.085938 216.65625 C 174.253906 216.65625 180.875 210.035156 180.875 201.867188 C 180.875 193.699219 174.253906 187.078125 166.085938 187.078125 Z M 166.085938 187.078125 " clip-rule="nonzero"/></clipPath><clipPath id="2ceb712400"><path d="M 151.296875 125.289062 L 180.875 125.289062 L 180.875 154.867188 L 151.296875 154.867188 Z M 151.296875 125.289062 " clip-rule="nonzero"/></clipPath><clipPath id="3753c4a1ac"><path d="M 166.085938 125.289062 C 157.917969 125.289062 151.296875 131.910156 151.296875 140.078125 C 151.296875 148.246094 157.917969 154.867188 166.085938 154.867188 C 174.253906 154.867188 180.875 148.246094 180.875 140.078125 C 180.875 131.910156 174.253906 125.289062 166.085938 125.289062 Z M 166.085938 125.289062 " clip-rule="nonzero"/></clipPath><clipPath id="a7bd9b5813"><path d="M 151.296875 63.5 L 180.875 63.5 L 180.875 93.078125 L 151.296875 93.078125 Z M 151.296875 63.5 " clip-rule="nonzero"/></clipPath><clipPath id="f5037ca980"><path d="M 166.085938 63.5 C 157.917969 63.5 151.296875 70.121094 151.296875 78.289062 C 151.296875 86.457031 157.917969 93.078125 166.085938 93.078125 C 174.253906 93.078125 180.875 86.457031 180.875 78.289062 C 180.875 70.121094 174.253906 63.5 166.085938 63.5 Z M 166.085938 63.5 " clip-rule="nonzero"/></clipPath><clipPath id="4b3f7f4667"><path d="M 151.296875 32.605469 L 180.875 32.605469 L 180.875 62.183594 L 151.296875 62.183594 Z M 151.296875 32.605469 " clip-rule="nonzero"/></clipPath><clipPath id="d2950d03ba"><path d="M 166.085938 32.605469 C 157.917969 32.605469 151.296875 39.226562 151.296875 47.394531 C 151.296875 55.5625 157.917969 62.183594 166.085938 62.183594 C 174.253906 62.183594 180.875 55.5625 180.875 47.394531 C 180.875 39.226562 174.253906 32.605469 166.085938 32.605469 Z M 166.085938 32.605469 " clip-rule="nonzero"/></clipPath><clipPath id="60c1aab8e7"><path d="M 151.296875 1.332031 L 180.875 1.332031 L 180.875 30.910156 L 151.296875 30.910156 Z M 151.296875 1.332031 " clip-rule="nonzero"/></clipPath><clipPath id="98a2e68838"><path d="M 166.085938 1.332031 C 157.917969 1.332031 151.296875 7.953125 151.296875 16.121094 C 151.296875 24.289062 157.917969 30.910156 166.085938 30.910156 C 174.253906 30.910156 180.875 24.289062 180.875 16.121094 C 180.875 7.953125 174.253906 1.332031 166.085938 1.332031 Z M 166.085938 1.332031 " clip-rule="nonzero"/></clipPath><clipPath id="2afa2baabc"><path d="M 151.296875 156.183594 L 180.875 156.183594 L 180.875 185.761719 L 151.296875 185.761719 Z M 151.296875 156.183594 " clip-rule="nonzero"/></clipPath><clipPath id="37ffdcbf28"><path d="M 166.085938 156.183594 C 157.917969 156.183594 151.296875 162.804688 151.296875 170.972656 C 151.296875 179.140625 157.917969 185.761719 166.085938 185.761719 C 174.253906 185.761719 180.875 179.140625 180.875 170.972656 C 180.875 162.804688 174.253906 156.183594 166.085938 156.183594 Z M 166.085938 156.183594 " clip-rule="nonzero"/></clipPath><clipPath id="85aaefb080"><path d="M 151.296875 94.394531 L 180.875 94.394531 L 180.875 123.972656 L 151.296875 123.972656 Z M 151.296875 94.394531 " clip-rule="nonzero"/></clipPath><clipPath id="41c7583830"><path d="M 166.085938 94.394531 C 157.917969 94.394531 151.296875 101.015625 151.296875 109.183594 C 151.296875 117.351562 157.917969 123.972656 166.085938 123.972656 C 174.253906 123.972656 180.875 117.351562 180.875 109.183594 C 180.875 101.015625 174.253906 94.394531 166.085938 94.394531 Z M 166.085938 94.394531 " clip-rule="nonzero"/></clipPath><clipPath id="4cce09088a"><path d="M 337.039062 92.816406 L 366.617188 92.816406 L 366.617188 122.394531 L 337.039062 122.394531 Z M 337.039062 92.816406 " clip-rule="nonzero"/></clipPath><clipPath id="fad428b4fe"><path d="M 351.828125 92.816406 C 343.660156 92.816406 337.039062 99.4375 337.039062 107.605469 C 337.039062 115.773438 343.660156 122.394531 351.828125 122.394531 C 359.996094 122.394531 366.617188 115.773438 366.617188 107.605469 C 366.617188 99.4375 359.996094 92.816406 351.828125 92.816406 Z M 351.828125 92.816406 " clip-rule="nonzero"/></clipPath><clipPath id="12096ee540"><path d="M 367.933594 92.753906 L 397.511719 92.753906 L 397.511719 122.332031 L 367.933594 122.332031 Z M 367.933594 92.753906 " clip-rule="nonzero"/></clipPath><clipPath id="3766b581f7"><path d="M 382.722656 92.753906 C 374.554688 92.753906 367.933594 99.375 367.933594 107.542969 C 367.933594 115.710938 374.554688 122.332031 382.722656 122.332031 C 390.890625 122.332031 397.511719 115.710938 397.511719 107.542969 C 397.511719 99.375 390.890625 92.753906 382.722656 92.753906 Z M 382.722656 92.753906 " clip-rule="nonzero"/></clipPath><clipPath id="fc82557e2b"><path d="M 367.605469 0 L 397.183594 0 L 397.183594 29.578125 L 367.605469 29.578125 Z M 367.605469 0 " clip-rule="nonzero"/></clipPath><clipPath id="c04fc4ca8d"><path d="M 382.394531 0 C 374.226562 0 367.605469 6.621094 367.605469 14.789062 C 367.605469 22.957031 374.226562 29.578125 382.394531 29.578125 C 390.5625 29.578125 397.183594 22.957031 397.183594 14.789062 C 397.183594 6.621094 390.5625 0 382.394531 0 Z M 382.394531 0 " clip-rule="nonzero"/></clipPath><clipPath id="0a59857f6c"><path d="M 336.710938 0 L 366.289062 0 L 366.289062 29.578125 L 336.710938 29.578125 Z M 336.710938 0 " clip-rule="nonzero"/></clipPath><clipPath id="2ab70273ec"><path d="M 351.5 0 C 343.332031 0 336.710938 6.621094 336.710938 14.789062 C 336.710938 22.957031 343.332031 29.578125 351.5 29.578125 C 359.667969 29.578125 366.289062 22.957031 366.289062 14.789062 C 366.289062 6.621094 359.667969 0 351.5 0 Z M 351.5 0 " clip-rule="nonzero"/></clipPath><clipPath id="8a728d1fa3"><path d="M 398.5 0.0625 L 428.078125 0.0625 L 428.078125 29.640625 L 398.5 29.640625 Z M 398.5 0.0625 " clip-rule="nonzero"/></clipPath><clipPath id="1f588d1709"><path d="M 413.289062 0.0625 C 405.121094 0.0625 398.5 6.683594 398.5 14.851562 C 398.5 23.019531 405.121094 29.640625 413.289062 29.640625 C 421.457031 29.640625 428.078125 23.019531 428.078125 14.851562 C 428.078125 6.683594 421.457031 0.0625 413.289062 0.0625 Z M 413.289062 0.0625 " clip-rule="nonzero"/></clipPath><clipPath id="b64704fb46"><path d="M 305.816406 186.09375 L 335.394531 186.09375 L 335.394531 215.671875 L 305.816406 215.671875 Z M 305.816406 186.09375 " clip-rule="nonzero"/></clipPath><clipPath id="97960b9a25"><path d="M 320.605469 186.09375 C 312.4375 186.09375 305.816406 192.714844 305.816406 200.882812 C 305.816406 209.050781 312.4375 215.671875 320.605469 215.671875 C 328.773438 215.671875 335.394531 209.050781 335.394531 200.882812 C 335.394531 192.714844 328.773438 186.09375 320.605469 186.09375 Z M 320.605469 186.09375 " clip-rule="nonzero"/></clipPath><clipPath id="1bf8816206"><path d="M 305.816406 124.308594 L 335.394531 124.308594 L 335.394531 153.882812 L 305.816406 153.882812 Z M 305.816406 124.308594 " clip-rule="nonzero"/></clipPath><clipPath id="aa6f308ec5"><path d="M 320.605469 124.308594 C 312.4375 124.308594 305.816406 130.929688 305.816406 139.09375 C 305.816406 147.261719 312.4375 153.882812 320.605469 153.882812 C 328.773438 153.882812 335.394531 147.261719 335.394531 139.09375 C 335.394531 130.929688 328.773438 124.308594 320.605469 124.308594 Z M 320.605469 124.308594 " clip-rule="nonzero"/></clipPath><clipPath id="3bbfcd00b1"><path d="M 305.816406 62.519531 L 335.394531 62.519531 L 335.394531 92.097656 L 305.816406 92.097656 Z M 305.816406 62.519531 " clip-rule="nonzero"/></clipPath><clipPath id="6be9367de0"><path d="M 320.605469 62.519531 C 312.4375 62.519531 305.816406 69.140625 305.816406 77.308594 C 305.816406 85.476562 312.4375 92.097656 320.605469 92.097656 C 328.773438 92.097656 335.394531 85.476562 335.394531 77.308594 C 335.394531 69.140625 328.773438 62.519531 320.605469 62.519531 Z M 320.605469 62.519531 " clip-rule="nonzero"/></clipPath><clipPath id="6bc970ad74"><path d="M 305.816406 31.625 L 335.394531 31.625 L 335.394531 61.203125 L 305.816406 61.203125 Z M 305.816406 31.625 " clip-rule="nonzero"/></clipPath><clipPath id="4cfc013a5d"><path d="M 320.605469 31.625 C 312.4375 31.625 305.816406 38.246094 305.816406 46.414062 C 305.816406 54.582031 312.4375 61.203125 320.605469 61.203125 C 328.773438 61.203125 335.394531 54.582031 335.394531 46.414062 C 335.394531 38.246094 328.773438 31.625 320.605469 31.625 Z M 320.605469 31.625 " clip-rule="nonzero"/></clipPath><clipPath id="7f3ed70d42"><path d="M 305.816406 0.351562 L 335.394531 0.351562 L 335.394531 29.929688 L 305.816406 29.929688 Z M 305.816406 0.351562 " clip-rule="nonzero"/></clipPath><clipPath id="828734be3a"><path d="M 320.605469 0.351562 C 312.4375 0.351562 305.816406 6.972656 305.816406 15.140625 C 305.816406 23.308594 312.4375 29.929688 320.605469 29.929688 C 328.773438 29.929688 335.394531 23.308594 335.394531 15.140625 C 335.394531 6.972656 328.773438 0.351562 320.605469 0.351562 Z M 320.605469 0.351562 " clip-rule="nonzero"/></clipPath><clipPath id="a9ce776254"><path d="M 305.816406 155.199219 L 335.394531 155.199219 L 335.394531 184.777344 L 305.816406 184.777344 Z M 305.816406 155.199219 " clip-rule="nonzero"/></clipPath><clipPath id="4f1901d07a"><path d="M 320.605469 155.199219 C 312.4375 155.199219 305.816406 161.820312 305.816406 169.988281 C 305.816406 178.15625 312.4375 184.777344 320.605469 184.777344 C 328.773438 184.777344 335.394531 178.15625 335.394531 169.988281 C 335.394531 161.820312 328.773438 155.199219 320.605469 155.199219 Z M 320.605469 155.199219 " clip-rule="nonzero"/></clipPath><clipPath id="d8d7bd068e"><path d="M 305.816406 93.414062 L 335.394531 93.414062 L 335.394531 122.988281 L 305.816406 122.988281 Z M 305.816406 93.414062 " clip-rule="nonzero"/></clipPath><clipPath id="72df19ed81"><path d="M 320.605469 93.414062 C 312.4375 93.414062 305.816406 100.035156 305.816406 108.203125 C 305.816406 116.367188 312.4375 122.988281 320.605469 122.988281 C 328.773438 122.988281 335.394531 116.367188 335.394531 108.203125 C 335.394531 100.035156 328.773438 93.414062 320.605469 93.414062 Z M 320.605469 93.414062 " clip-rule="nonzero"/></clipPath><clipPath id="f5fc0e8e87"><path d="M 305.816406 186.09375 L 335.394531 186.09375 L 335.394531 215.671875 L 305.816406 215.671875 Z M 305.816406 186.09375 " clip-rule="nonzero"/></clipPath><clipPath id="cef3166120"><path d="M 320.605469 186.09375 C 312.4375 186.09375 305.816406 192.714844 305.816406 200.882812 C 305.816406 209.050781 312.4375 215.671875 320.605469 215.671875 C 328.773438 215.671875 335.394531 209.050781 335.394531 200.882812 C 335.394531 192.714844 328.773438 186.09375 320.605469 186.09375 Z M 320.605469 186.09375 " clip-rule="nonzero"/></clipPath><clipPath id="654802e3f4"><path d="M 305.816406 124.308594 L 335.394531 124.308594 L 335.394531 153.882812 L 305.816406 153.882812 Z M 305.816406 124.308594 " clip-rule="nonzero"/></clipPath><clipPath id="1addf3f6f7"><path d="M 320.605469 124.308594 C 312.4375 124.308594 305.816406 130.929688 305.816406 139.09375 C 305.816406 147.261719 312.4375 153.882812 320.605469 153.882812 C 328.773438 153.882812 335.394531 147.261719 335.394531 139.09375 C 335.394531 130.929688 328.773438 124.308594 320.605469 124.308594 Z M 320.605469 124.308594 " clip-rule="nonzero"/></clipPath><clipPath id="99207871b9"><path d="M 305.816406 62.519531 L 335.394531 62.519531 L 335.394531 92.097656 L 305.816406 92.097656 Z M 305.816406 62.519531 " clip-rule="nonzero"/></clipPath><clipPath id="63e364bc9b"><path d="M 320.605469 62.519531 C 312.4375 62.519531 305.816406 69.140625 305.816406 77.308594 C 305.816406 85.476562 312.4375 92.097656 320.605469 92.097656 C 328.773438 92.097656 335.394531 85.476562 335.394531 77.308594 C 335.394531 69.140625 328.773438 62.519531 320.605469 62.519531 Z M 320.605469 62.519531 " clip-rule="nonzero"/></clipPath><clipPath id="6c37c0c2ed"><path d="M 305.816406 31.625 L 335.394531 31.625 L 335.394531 61.203125 L 305.816406 61.203125 Z M 305.816406 31.625 " clip-rule="nonzero"/></clipPath><clipPath id="4d53c4e203"><path d="M 320.605469 31.625 C 312.4375 31.625 305.816406 38.246094 305.816406 46.414062 C 305.816406 54.582031 312.4375 61.203125 320.605469 61.203125 C 328.773438 61.203125 335.394531 54.582031 335.394531 46.414062 C 335.394531 38.246094 328.773438 31.625 320.605469 31.625 Z M 320.605469 31.625 " clip-rule="nonzero"/></clipPath><clipPath id="7b2dda6dc0"><path d="M 305.816406 0.351562 L 335.394531 0.351562 L 335.394531 29.929688 L 305.816406 29.929688 Z M 305.816406 0.351562 " clip-rule="nonzero"/></clipPath><clipPath id="51e5406a25"><path d="M 320.605469 0.351562 C 312.4375 0.351562 305.816406 6.972656 305.816406 15.140625 C 305.816406 23.308594 312.4375 29.929688 320.605469 29.929688 C 328.773438 29.929688 335.394531 23.308594 335.394531 15.140625 C 335.394531 6.972656 328.773438 0.351562 320.605469 0.351562 Z M 320.605469 0.351562 " clip-rule="nonzero"/></clipPath><clipPath id="47f2450b73"><path d="M 305.816406 155.199219 L 335.394531 155.199219 L 335.394531 184.777344 L 305.816406 184.777344 Z M 305.816406 155.199219 " clip-rule="nonzero"/></clipPath><clipPath id="b76414726e"><path d="M 320.605469 155.199219 C 312.4375 155.199219 305.816406 161.820312 305.816406 169.988281 C 305.816406 178.15625 312.4375 184.777344 320.605469 184.777344 C 328.773438 184.777344 335.394531 178.15625 335.394531 169.988281 C 335.394531 161.820312 328.773438 155.199219 320.605469 155.199219 Z M 320.605469 155.199219 " clip-rule="nonzero"/></clipPath><clipPath id="608da5fc49"><path d="M 305.816406 93.414062 L 335.394531 93.414062 L 335.394531 122.988281 L 305.816406 122.988281 Z M 305.816406 93.414062 " clip-rule="nonzero"/></clipPath><clipPath id="3c8de32292"><path d="M 320.605469 93.414062 C 312.4375 93.414062 305.816406 100.035156 305.816406 108.203125 C 305.816406 116.367188 312.4375 122.988281 320.605469 122.988281 C 328.773438 122.988281 335.394531 116.367188 335.394531 108.203125 C 335.394531 100.035156 328.773438 93.414062 320.605469 93.414062 Z M 320.605469 93.414062 " clip-rule="nonzero"/></clipPath><clipPath id="ead7e3f9e7"><path d="M 367.933594 186.09375 L 397.511719 186.09375 L 397.511719 215.671875 L 367.933594 215.671875 Z M 367.933594 186.09375 " clip-rule="nonzero"/></clipPath><clipPath id="3313716b5f"><path d="M 382.722656 186.09375 C 374.554688 186.09375 367.933594 192.714844 367.933594 200.882812 C 367.933594 209.050781 374.554688 215.671875 382.722656 215.671875 C 390.890625 215.671875 397.511719 209.050781 397.511719 200.882812 C 397.511719 192.714844 390.890625 186.09375 382.722656 186.09375 Z M 382.722656 186.09375 " clip-rule="nonzero"/></clipPath><clipPath id="04c6239334"><path d="M 337.039062 186.09375 L 366.617188 186.09375 L 366.617188 215.671875 L 337.039062 215.671875 Z M 337.039062 186.09375 " clip-rule="nonzero"/></clipPath><clipPath id="973f150981"><path d="M 351.828125 186.09375 C 343.660156 186.09375 337.039062 192.714844 337.039062 200.882812 C 337.039062 209.050781 343.660156 215.671875 351.828125 215.671875 C 359.996094 215.671875 366.617188 209.050781 366.617188 200.882812 C 366.617188 192.714844 359.996094 186.09375 351.828125 186.09375 Z M 351.828125 186.09375 " clip-rule="nonzero"/></clipPath><clipPath id="b4f22ecc39"><path d="M 398.828125 186.15625 L 428.328125 186.15625 L 428.328125 215.734375 L 398.828125 215.734375 Z M 398.828125 186.15625 " clip-rule="nonzero"/></clipPath><clipPath id="443b303031"><path d="M 413.617188 186.15625 C 405.449219 186.15625 398.828125 192.777344 398.828125 200.945312 C 398.828125 209.113281 405.449219 215.734375 413.617188 215.734375 C 421.785156 215.734375 428.40625 209.113281 428.40625 200.945312 C 428.40625 192.777344 421.785156 186.15625 413.617188 186.15625 Z M 413.617188 186.15625 " clip-rule="nonzero"/></clipPath></defs><g clip-path="url(#d1db9c1f0e)"><path fill="#ffffff" d="M 0.433594 0 L 428.449219 0 L 428.449219 217 L 0.433594 217 Z M 0.433594 0 " fill-opacity="1" fill-rule="nonzero"/></g><g clip-path="url(#91f70fbe00)"><g clip-path="url(#9d524f61ba)"><path fill="#e56dfc" d="M 182.519531 93.796875 L 212.097656 93.796875 L 212.097656 123.375 L 182.519531 123.375 Z M 182.519531 93.796875 " fill-opacity="1" fill-rule="nonzero"/></g></g><g clip-path="url(#77ab2d61fc)"><g clip-path="url(#df0d0c294c)"><path fill="#e56dfc" d="M 213.414062 93.738281 L 242.992188 93.738281 L 242.992188 123.316406 L 213.414062 123.316406 Z M 213.414062 93.738281 " fill-opacity="1" fill-rule="nonzero"/></g></g><g clip-path="url(#4062f2bb11)"><g clip-path="url(#21cd4c667c)"><path fill="#512b71" d="M 213.085938 0.984375 L 242.664062 0.984375 L 242.664062 30.558594 L 213.085938 30.558594 Z M 213.085938 0.984375 " fill-opacity="1" fill-rule="nonzero"/></g></g><g clip-path="url(#653d3148a4)"><g clip-path="url(#d4280dc013)"><path fill="#512b71" d="M 182.191406 0.984375 L 211.769531 0.984375 L 211.769531 30.558594 L 182.191406 30.558594 Z M 182.191406 0.984375 " fill-opacity="1" fill-rule="nonzero"/></g></g><g clip-path="url(#5fea7b029f)"><g clip-path="url(#0c7ecf48c4)"><path fill="#512b71" d="M 243.980469 1.042969 L 273.558594 1.042969 L 273.558594 30.621094 L 243.980469 30.621094 Z M 243.980469 1.042969 " fill-opacity="1" fill-rule="nonzero"/></g></g><g clip-path="url(#0c989feaad)"><g clip-path="url(#123e4d9b48)"><path fill="#ffffff" d="M 151.296875 187.078125 L 180.875 187.078125 L 180.875 216.65625 L 151.296875 216.65625 Z M 151.296875 187.078125 " fill-opacity="1" fill-rule="nonzero"/></g></g><g clip-path="url(#eb56dee1e2)"><g clip-path="url(#5e240f39f4)"><path fill="#ffffff" d="M 151.296875 125.289062 L 180.875 125.289062 L 180.875 154.867188 L 151.296875 154.867188 Z M 151.296875 125.289062 " fill-opacity="1" fill-rule="nonzero"/></g></g><g clip-path="url(#716ab3fac7)"><g clip-path="url(#39b59f1b54)"><path fill="#ffffff" d="M 151.296875 63.5 L 180.875 63.5 L 180.875 93.078125 L 151.296875 93.078125 Z M 151.296875 63.5 " fill-opacity="1" fill-rule="nonzero"/></g></g><g clip-path="url(#0fe8917966)"><g clip-path="url(#592620eb67)"><path fill="#ffffff" d="M 151.296875 32.605469 L 180.875 32.605469 L 180.875 62.183594 L 151.296875 62.183594 Z M 151.296875 32.605469 " fill-opacity="1" fill-rule="nonzero"/></g></g><g clip-path="url(#01c469fafd)"><g clip-path="url(#fdec885c53)"><path fill="#ffffff" d="M 151.296875 1.332031 L 180.875 1.332031 L 180.875 30.910156 L 151.296875 30.910156 Z M 151.296875 1.332031 " fill-opacity="1" fill-rule="nonzero"/></g></g><g clip-path="url(#0273246ade)"><g clip-path="url(#bdb6b12de3)"><path fill="#ffffff" d="M 151.296875 156.183594 L 180.875 156.183594 L 180.875 185.761719 L 151.296875 185.761719 Z M 151.296875 156.183594 " fill-opacity="1" fill-rule="nonzero"/></g></g><g clip-path="url(#709e87eb73)"><g clip-path="url(#786ec7197a)"><path fill="#ffffff" d="M 151.296875 94.394531 L 180.875 94.394531 L 180.875 123.972656 L 151.296875 123.972656 Z M 151.296875 94.394531 " fill-opacity="1" fill-rule="nonzero"/></g></g><g clip-path="url(#c5b88e3fbd)"><g clip-path="url(#8a59c2108a)"><path fill="#b958fd" d="M 92.707031 47.394531 L 122.285156 47.394531 L 122.285156 76.972656 L 92.707031 76.972656 Z M 92.707031 47.394531 " fill-opacity="1" fill-rule="nonzero"/></g></g><g clip-path="url(#07447bee36)"><g clip-path="url(#2ec5ee62fd)"><path fill="#512b71" d="M 91.0625 16.5 L 120.640625 16.5 L 120.640625 46.078125 L 91.0625 46.078125 Z M 91.0625 16.5 " fill-opacity="1" fill-rule="nonzero"/></g></g><g clip-path="url(#5cbab9d57c)"><g clip-path="url(#009a414fe4)"><path fill="#512b71" d="M 63.128906 0.492188 L 92.707031 0.492188 L 92.707031 30.070312 L 63.128906 30.070312 Z M 63.128906 0.492188 " fill-opacity="1" fill-rule="nonzero"/></g></g><g clip-path="url(#e83d9f87c6)"><g clip-path="url(#1906a14470)"><path fill="#512b71" d="M 31.375 0.492188 L 60.953125 0.492188 L 60.953125 30.070312 L 31.375 30.070312 Z M 31.375 0.492188 " fill-opacity="1" fill-rule="nonzero"/></g></g><g clip-path="url(#ef080518f6)"><g clip-path="url(#d5cba59f85)"><path fill="#e56dfc" d="M 62.269531 91.753906 L 91.847656 91.753906 L 91.847656 121.328125 L 62.269531 121.328125 Z M 62.269531 91.753906 " fill-opacity="1" fill-rule="nonzero"/></g></g><g clip-path="url(#e94e75997f)"><g clip-path="url(#0394127861)"><path fill="#e56dfc" d="M 31.375 91.753906 L 60.953125 91.753906 L 60.953125 121.328125 L 31.375 121.328125 Z M 31.375 91.753906 " fill-opacity="1" fill-rule="nonzero"/></g></g><g clip-path="url(#a77a5c9a16)"><g clip-path="url(#d8e6b96220)"><path fill="#ffa7fc" d="M 0.433594 187.078125 L 30.007812 187.078125 L 30.007812 216.65625 L 0.433594 216.65625 Z M 0.433594 187.078125 " fill-opacity="1" fill-rule="nonzero"/></g></g><g clip-path="url(#e41136dcd1)"><g clip-path="url(#52081fc58c)"><path fill="#fe82fe" d="M 0.433594 125.289062 L 30.007812 125.289062 L 30.007812 154.867188 L 0.433594 154.867188 Z M 0.433594 125.289062 " fill-opacity="1" fill-rule="nonzero"/></g></g><g clip-path="url(#fbdd39bf0b)"><g clip-path="url(#0e0899533e)"><path fill="#c461fb" d="M 0.433594 63.5 L 30.007812 63.5 L 30.007812 93.078125 L 0.433594 93.078125 Z M 0.433594 63.5 " fill-opacity="1" fill-rule="nonzero"/></g></g><g clip-path="url(#53014725cf)"><g clip-path="url(#c087d6b44d)"><path fill="#a954fa" d="M 0.433594 32.605469 L 30.007812 32.605469 L 30.007812 62.183594 L 0.433594 62.183594 Z M 0.433594 32.605469 " fill-opacity="1" fill-rule="nonzero"/></g></g><g clip-path="url(#630acd47a2)"><g clip-path="url(#d7db24c736)"><path fill="#9046d4" d="M 0.433594 1.042969 L 30.007812 1.042969 L 30.007812 30.621094 L 0.433594 30.621094 Z M 0.433594 1.042969 " fill-opacity="1" fill-rule="nonzero"/></g></g><g clip-path="url(#76c88048b2)"><g clip-path="url(#0748501491)"><path fill="#ff99ff" d="M 0.433594 156.183594 L 30.007812 156.183594 L 30.007812 185.761719 L 0.433594 185.761719 Z M 0.433594 156.183594 " fill-opacity="1" fill-rule="nonzero"/></g></g><g clip-path="url(#345d2cf4ba)"><g clip-path="url(#feb3e09e39)"><path fill="#e56dfc" d="M 0.433594 94.394531 L 30.007812 94.394531 L 30.007812 123.972656 L 0.433594 123.972656 Z M 0.433594 94.394531 " fill-opacity="1" fill-rule="nonzero"/></g></g><g clip-path="url(#cd45a8d0ab)"><g clip-path="url(#1075838472)"><path fill="#d266fd" d="M 91.0625 78.289062 L 120.640625 78.289062 L 120.640625 107.867188 L 91.0625 107.867188 Z M 91.0625 78.289062 " fill-opacity="1" fill-rule="nonzero"/></g></g><g clip-path="url(#6c82d3ff06)"><g clip-path="url(#871e9b5d33)"><path fill="#ffa7fc" d="M 151.296875 187.078125 L 180.875 187.078125 L 180.875 216.65625 L 151.296875 216.65625 Z M 151.296875 187.078125 " fill-opacity="1" fill-rule="nonzero"/></g></g><g clip-path="url(#2ceb712400)"><g clip-path="url(#3753c4a1ac)"><path fill="#fe82fe" d="M 151.296875 125.289062 L 180.875 125.289062 L 180.875 154.867188 L 151.296875 154.867188 Z M 151.296875 125.289062 " fill-opacity="1" fill-rule="nonzero"/></g></g><g clip-path="url(#a7bd9b5813)"><g clip-path="url(#f5037ca980)"><path fill="#c461fb" d="M 151.296875 63.5 L 180.875 63.5 L 180.875 93.078125 L 151.296875 93.078125 Z M 151.296875 63.5 " fill-opacity="1" fill-rule="nonzero"/></g></g><g clip-path="url(#4b3f7f4667)"><g clip-path="url(#d2950d03ba)"><path fill="#a954fa" d="M 151.296875 32.605469 L 180.875 32.605469 L 180.875 62.183594 L 151.296875 62.183594 Z M 151.296875 32.605469 " fill-opacity="1" fill-rule="nonzero"/></g></g><g clip-path="url(#60c1aab8e7)"><g clip-path="url(#98a2e68838)"><path fill="#9046d4" d="M 151.296875 1.332031 L 180.875 1.332031 L 180.875 30.910156 L 151.296875 30.910156 Z M 151.296875 1.332031 " fill-opacity="1" fill-rule="nonzero"/></g></g><g clip-path="url(#2afa2baabc)"><g clip-path="url(#37ffdcbf28)"><path fill="#ff99ff" d="M 151.296875 156.183594 L 180.875 156.183594 L 180.875 185.761719 L 151.296875 185.761719 Z M 151.296875 156.183594 " fill-opacity="1" fill-rule="nonzero"/></g></g><g clip-path="url(#85aaefb080)"><g clip-path="url(#41c7583830)"><path fill="#e56dfc" d="M 151.296875 94.394531 L 180.875 94.394531 L 180.875 123.972656 L 151.296875 123.972656 Z M 151.296875 94.394531 " fill-opacity="1" fill-rule="nonzero"/></g></g><g clip-path="url(#4cce09088a)"><g clip-path="url(#fad428b4fe)"><path fill="#e56dfc" d="M 337.039062 92.816406 L 366.617188 92.816406 L 366.617188 122.394531 L 337.039062 122.394531 Z M 337.039062 92.816406 " fill-opacity="1" fill-rule="nonzero"/></g></g><g clip-path="url(#12096ee540)"><g clip-path="url(#3766b581f7)"><path fill="#e56dfc" d="M 367.933594 92.753906 L 397.511719 92.753906 L 397.511719 122.332031 L 367.933594 122.332031 Z M 367.933594 92.753906 " fill-opacity="1" fill-rule="nonzero"/></g></g><g clip-path="url(#fc82557e2b)"><g clip-path="url(#c04fc4ca8d)"><path fill="#512b71" d="M 367.605469 0 L 397.183594 0 L 397.183594 29.578125 L 367.605469 29.578125 Z M 367.605469 0 " fill-opacity="1" fill-rule="nonzero"/></g></g><g clip-path="url(#0a59857f6c)"><g clip-path="url(#2ab70273ec)"><path fill="#512b71" d="M 336.710938 0 L 366.289062 0 L 366.289062 29.578125 L 336.710938 29.578125 Z M 336.710938 0 " fill-opacity="1" fill-rule="nonzero"/></g></g><g clip-path="url(#8a728d1fa3)"><g clip-path="url(#1f588d1709)"><path fill="#512b71" d="M 398.5 0.0625 L 428.078125 0.0625 L 428.078125 29.640625 L 398.5 29.640625 Z M 398.5 0.0625 " fill-opacity="1" fill-rule="nonzero"/></g></g><g clip-path="url(#b64704fb46)"><g clip-path="url(#97960b9a25)"><path fill="#ffffff" d="M 305.816406 186.09375 L 335.394531 186.09375 L 335.394531 215.671875 L 305.816406 215.671875 Z M 305.816406 186.09375 " fill-opacity="1" fill-rule="nonzero"/></g></g><g clip-path="url(#1bf8816206)"><g clip-path="url(#aa6f308ec5)"><path fill="#ffffff" d="M 305.816406 124.308594 L 335.394531 124.308594 L 335.394531 153.882812 L 305.816406 153.882812 Z M 305.816406 124.308594 " fill-opacity="1" fill-rule="nonzero"/></g></g><g clip-path="url(#3bbfcd00b1)"><g clip-path="url(#6be9367de0)"><path fill="#ffffff" d="M 305.816406 62.519531 L 335.394531 62.519531 L 335.394531 92.097656 L 305.816406 92.097656 Z M 305.816406 62.519531 " fill-opacity="1" fill-rule="nonzero"/></g></g><g clip-path="url(#6bc970ad74)"><g clip-path="url(#4cfc013a5d)"><path fill="#ffffff" d="M 305.816406 31.625 L 335.394531 31.625 L 335.394531 61.203125 L 305.816406 61.203125 Z M 305.816406 31.625 " fill-opacity="1" fill-rule="nonzero"/></g></g><g clip-path="url(#7f3ed70d42)"><g clip-path="url(#828734be3a)"><path fill="#ffffff" d="M 305.816406 0.351562 L 335.394531 0.351562 L 335.394531 29.929688 L 305.816406 29.929688 Z M 305.816406 0.351562 " fill-opacity="1" fill-rule="nonzero"/></g></g><g clip-path="url(#a9ce776254)"><g clip-path="url(#4f1901d07a)"><path fill="#ffffff" d="M 305.816406 155.199219 L 335.394531 155.199219 L 335.394531 184.777344 L 305.816406 184.777344 Z M 305.816406 155.199219 " fill-opacity="1" fill-rule="nonzero"/></g></g><g clip-path="url(#d8d7bd068e)"><g clip-path="url(#72df19ed81)"><path fill="#ffffff" d="M 305.816406 93.414062 L 335.394531 93.414062 L 335.394531 122.988281 L 305.816406 122.988281 Z M 305.816406 93.414062 " fill-opacity="1" fill-rule="nonzero"/></g></g><g clip-path="url(#f5fc0e8e87)"><g clip-path="url(#cef3166120)"><path fill="#ffa7fc" d="M 305.816406 186.09375 L 335.394531 186.09375 L 335.394531 215.671875 L 305.816406 215.671875 Z M 305.816406 186.09375 " fill-opacity="1" fill-rule="nonzero"/></g></g><g clip-path="url(#654802e3f4)"><g clip-path="url(#1addf3f6f7)"><path fill="#fe82fe" d="M 305.816406 124.308594 L 335.394531 124.308594 L 335.394531 153.882812 L 305.816406 153.882812 Z M 305.816406 124.308594 " fill-opacity="1" fill-rule="nonzero"/></g></g><g clip-path="url(#99207871b9)"><g clip-path="url(#63e364bc9b)"><path fill="#c461fb" d="M 305.816406 62.519531 L 335.394531 62.519531 L 335.394531 92.097656 L 305.816406 92.097656 Z M 305.816406 62.519531 " fill-opacity="1" fill-rule="nonzero"/></g></g><g clip-path="url(#6c37c0c2ed)"><g clip-path="url(#4d53c4e203)"><path fill="#a954fa" d="M 305.816406 31.625 L 335.394531 31.625 L 335.394531 61.203125 L 305.816406 61.203125 Z M 305.816406 31.625 " fill-opacity="1" fill-rule="nonzero"/></g></g><g clip-path="url(#7b2dda6dc0)"><g clip-path="url(#51e5406a25)"><path fill="#9046d4" d="M 305.816406 0.351562 L 335.394531 0.351562 L 335.394531 29.929688 L 305.816406 29.929688 Z M 305.816406 0.351562 " fill-opacity="1" fill-rule="nonzero"/></g></g><g clip-path="url(#47f2450b73)"><g clip-path="url(#b76414726e)"><path fill="#ff99ff" d="M 305.816406 155.199219 L 335.394531 155.199219 L 335.394531 184.777344 L 305.816406 184.777344 Z M 305.816406 155.199219 " fill-opacity="1" fill-rule="nonzero"/></g></g><g clip-path="url(#608da5fc49)"><g clip-path="url(#3c8de32292)"><path fill="#e56dfc" d="M 305.816406 93.414062 L 335.394531 93.414062 L 335.394531 122.988281 L 305.816406 122.988281 Z M 305.816406 93.414062 " fill-opacity="1" fill-rule="nonzero"/></g></g><g clip-path="url(#ead7e3f9e7)"><g clip-path="url(#3313716b5f)"><path fill="#ffa7fc" d="M 367.933594 186.09375 L 397.511719 186.09375 L 397.511719 215.671875 L 367.933594 215.671875 Z M 367.933594 186.09375 " fill-opacity="1" fill-rule="nonzero"/></g></g><g clip-path="url(#04c6239334)"><g clip-path="url(#973f150981)"><path fill="#ffa7fc" d="M 337.039062 186.09375 L 366.617188 186.09375 L 366.617188 215.671875 L 337.039062 215.671875 Z M 337.039062 186.09375 " fill-opacity="1" fill-rule="nonzero"/></g></g><g clip-path="url(#b4f22ecc39)"><g clip-path="url(#443b303031)"><path fill="#ffa7fc" d="M 398.828125 186.15625 L 428.40625 186.15625 L 428.40625 215.734375 L 398.828125 215.734375 Z M 398.828125 186.15625 " fill-opacity="1" fill-rule="nonzero"/></g></g></svg>